<?xml version="1.0" standalone="no"?>
<!DOCTYPE svg PUBLIC "-//W3C//DTD SVG 20010904//EN"
 "http://www.w3.org/TR/2001/REC-SVG-20010904/DTD/svg10.dtd">
<svg version="1.0" xmlns="http://www.w3.org/2000/svg"
 width="512.000000pt" height="512.000000pt" viewBox="0 0 512.000000 512.000000"
 preserveAspectRatio="xMidYMid meet">

<g transform="translate(0.000000,512.000000) scale(0.100000,-0.100000)"
fill="#000000" stroke="none">
<path d="M290 3708 c-82 -56 -99 -140 -44 -219 43 -64 295 -313 408 -404 55
-44 109 -89 122 -100 l23 -20 -285 -370 c-185 -241 -288 -383 -294 -408 -37
-131 134 -243 242 -158 13 11 153 188 312 394 l287 375 122 -63 c187 -98 494
-213 640 -240 20 -4 37 -12 37 -17 0 -6 -43 -220 -95 -476 -104 -509 -104
-511 -48 -564 41 -37 66 -48 116 -48 48 0 97 27 128 70 12 16 51 186 114 494
52 259 97 471 99 473 1 2 45 -1 97 -7 121 -13 457 -13 578 0 52 6 96 9 97 7 2
-2 47 -214 99 -473 63 -308 102 -478 114 -494 31 -43 80 -70 128 -70 50 0 75
11 116 48 56 53 56 55 -48 563 -52 255 -95 469 -95 475 0 6 26 16 58 23 222
49 531 178 773 321 56 33 104 60 107 60 4 0 101 -185 215 -410 218 -428 234
-453 302 -466 108 -20 212 75 189 173 -6 27 -293 598 -400 795 l-52 97 116
103 c154 137 319 321 333 371 18 68 -17 140 -88 176 -28 14 -98 14 -126 -1
-12 -6 -96 -86 -187 -178 -260 -263 -458 -408 -755 -555 -497 -246 -1074 -328
-1645 -234 -584 97 -1097 377 -1524 832 -61 65 -123 125 -138 133 -41 22 -110
18 -148 -8z"/>
</g>
</svg>
