<svg xmlns="http://www.w3.org/2000/svg" width="512" height="512" viewBox="0 0 512 512" version="1.1"><path d="M 248.402 74.486 C 239.902 76.335, 233.236 79.970, 227.929 85.650 C 222.547 91.411, 199.418 122.345, 188.788 138 C 180.944 149.552, 174.079 159.475, 173.212 160.512 C 172.747 161.068, 170.646 164.218, 168.544 167.512 C 166.441 170.805, 162.376 177.100, 159.511 181.500 C 143.680 205.809, 134.596 220.706, 117.742 250 C 116.634 251.925, 114.146 256.425, 112.212 260 C 110.278 263.575, 107.713 268.075, 106.511 270 C 101.725 277.669, 76.261 327.363, 67.824 345.500 C 65.266 351, 61.277 359.550, 58.960 364.500 C 54.811 373.363, 53.825 375.624, 44.568 397.500 C 38.405 412.063, 37.081 420.297, 39.407 429.608 C 42.598 442.387, 49.713 451.314, 61.089 456.817 C 67.485 459.910, 72.263 460.723, 94 462.413 L 100.500 462.918 95.658 460.393 C 84.998 454.834, 77.144 443.235, 75.059 429.972 C 73.606 420.733, 74.835 414.895, 82.342 395.370 C 112.034 318.139, 153.852 233.909, 199.447 159.500 C 215.170 133.841, 245.409 88.884, 250.145 84.125 C 252.540 81.718, 256.891 78.635, 259.814 77.272 C 262.737 75.910, 264.987 74.677, 264.814 74.533 C 263.495 73.433, 253.376 73.404, 248.402 74.486" stroke="none" fill="#da4a54" fill-rule="evenodd"/><path d="M 240.586 181.043 C 236.630 182.226, 230.312 188.585, 228.767 192.938 C 227.312 197.038, 226.900 288.665, 228.307 295.310 C 229.266 299.843, 235.174 306.750, 239.718 308.653 C 241.872 309.555, 247.356 310, 256.311 310 C 268.384 310, 270.114 309.774, 274.093 307.672 C 276.987 306.144, 279.530 303.682, 281.500 300.501 L 284.500 295.657 284.500 245 L 284.500 194.343 281.500 189.499 C 279.530 186.318, 276.987 183.856, 274.093 182.328 C 270.096 180.217, 268.465 180.008, 256.593 180.086 C 249.392 180.133, 242.189 180.564, 240.586 181.043 M 238.459 345.880 C 233.527 348.120, 229.426 352.807, 228.044 357.781 C 227.476 359.826, 227.011 368.250, 227.011 376.500 C 227.011 393.117, 227.809 397.431, 231.747 402.111 C 236.461 407.714, 240.800 408.953, 255.782 408.978 C 273.504 409.007, 278.832 406.770, 283.110 397.500 C 285.628 392.043, 285.877 362.035, 283.452 356.232 C 281.388 351.290, 278.341 348.124, 273.500 345.890 C 267.696 343.211, 244.348 343.204, 238.459 345.880" stroke="none" fill="#fbfbfb" fill-rule="evenodd"/><path d="M 134.500 45.332 C 124.296 49.345, 116.585 56.363, 115.392 62.725 C 113.880 70.782, 115.236 74.300, 126.016 90.291 C 138.263 108.460, 138.439 108.671, 143.418 111.212 C 148.951 114.036, 157.959 113.380, 163.670 109.736 C 170.504 105.376, 173.354 100.800, 173.823 93.434 C 174.218 87.230, 174.070 86.788, 166.056 70.305 C 161.563 61.062, 156.675 52.206, 155.193 50.624 C 149.777 44.840, 141.278 42.666, 134.500 45.332 M 363.500 45.840 C 357.166 48.861, 354.628 52.408, 345.939 70.380 C 337.973 86.858, 337.792 87.396, 338.181 93.505 C 338.645 100.794, 341.520 105.391, 348.330 109.736 C 354.041 113.380, 363.049 114.036, 368.582 111.212 C 373.517 108.694, 373.625 108.564, 385.959 90.391 C 396.778 74.452, 398.142 70.899, 396.599 62.676 C 395.147 54.937, 382.030 45.108, 372.077 44.303 C 368.996 44.053, 366.193 44.555, 363.500 45.840 M 260.255 76.932 C 257.370 78.344, 252.946 81.505, 250.423 83.955 C 245.575 88.664, 215.951 132.565, 199.447 159.500 C 153.852 233.909, 112.034 318.139, 82.342 395.370 C 74.835 414.895, 73.606 420.733, 75.059 429.972 C 77.168 443.390, 85.090 454.971, 95.907 460.453 C 100.597 462.829, 102.785 463.140, 124.252 464.474 C 197.503 469.027, 288.839 468.838, 371 463.964 C 409.087 461.704, 440.629 458.908, 445.500 457.358 C 462.277 452.021, 474.012 436.253, 473.994 419.068 C 473.987 411.336, 473 408.248, 463.264 385.500 C 422.576 290.428, 362.889 188.012, 297.463 101 C 286.507 86.429, 281.487 81.310, 274.824 77.910 C 267.609 74.229, 265.997 74.121, 260.255 76.932 M 48.500 129.929 C 44.025 131.009, 41.614 132.537, 38.135 136.499 C 29.525 146.305, 27.477 157.327, 32.679 165.867 C 35.330 170.222, 36.582 171.036, 53.500 179.415 C 74.329 189.730, 78.498 190.680, 85.986 186.815 C 94.129 182.612, 99.976 172.015, 98.498 164.137 C 96.978 156.037, 94.764 153.648, 78.385 142.437 C 64.694 133.066, 56.346 128.750, 52.591 129.102 C 51.991 129.159, 50.150 129.531, 48.500 129.929 M 453.500 130.374 C 451.300 131.081, 442.356 136.530, 433.625 142.483 C 418.616 152.715, 417.613 153.604, 415.253 158.758 C 413.261 163.109, 412.883 165.132, 413.383 168.774 C 414.550 177.291, 421.073 185.549, 428.593 188.031 C 434.835 190.091, 439.730 188.712, 458.308 179.664 C 474.959 171.554, 476.200 170.754, 479.011 166.322 C 484.490 157.682, 482.536 146.374, 473.853 136.486 C 468.392 130.265, 460.869 128.006, 453.500 130.374 M 240.586 181.043 C 236.630 182.226, 230.312 188.585, 228.767 192.938 C 227.312 197.038, 226.900 288.665, 228.307 295.310 C 229.266 299.843, 235.174 306.750, 239.718 308.653 C 241.872 309.555, 247.356 310, 256.311 310 C 268.384 310, 270.114 309.774, 274.093 307.672 C 276.987 306.144, 279.530 303.682, 281.500 300.501 L 284.500 295.657 284.500 245 L 284.500 194.343 281.500 189.499 C 279.530 186.318, 276.987 183.856, 274.093 182.328 C 270.096 180.217, 268.465 180.008, 256.593 180.086 C 249.392 180.133, 242.189 180.564, 240.586 181.043 M 12.655 248.459 C 7.874 250.164, 4.396 253.347, 1.813 258.386 C 0.135 261.658, -0.125 263.812, 0.161 272.045 C 0.478 281.192, 0.696 282.066, 3.551 285.660 C 5.229 287.772, 8.754 290.578, 11.383 291.896 L 16.164 294.291 34.332 293.073 C 56.751 291.570, 59.329 290.937, 64.603 285.649 C 74.510 275.712, 71.686 257.350, 59.350 251.496 C 56.712 250.244, 50.519 249.342, 38.065 248.396 C 16.700 246.772, 17.390 246.770, 12.655 248.459 M 472 248.411 C 461.310 249.275, 455.325 250.222, 452.715 251.462 C 440.314 257.356, 437.462 275.685, 447.397 285.649 C 452.671 290.937, 455.249 291.570, 477.668 293.073 L 495.836 294.291 500.617 291.896 C 503.246 290.578, 506.771 287.772, 508.449 285.660 C 511.339 282.023, 511.515 281.283, 511.781 271.660 C 512.032 262.595, 511.816 261.074, 509.773 257.542 C 508.513 255.364, 505.644 252.291, 503.396 250.711 C 498.245 247.091, 493.045 246.710, 472 248.411 M 238.459 345.880 C 233.527 348.120, 229.426 352.807, 228.044 357.781 C 227.476 359.826, 227.011 368.250, 227.011 376.500 C 227.011 393.117, 227.809 397.431, 231.747 402.111 C 236.461 407.714, 240.800 408.953, 255.782 408.978 C 273.504 409.007, 278.832 406.770, 283.110 397.500 C 285.628 392.043, 285.877 362.035, 283.452 356.232 C 281.388 351.290, 278.341 348.124, 273.500 345.890 C 267.696 343.211, 244.348 343.204, 238.459 345.880" stroke="none" fill="#dc6169" fill-rule="evenodd"/></svg>