<svg width="15" height="20" viewBox="0 0 15 20" fill="none" xmlns="http://www.w3.org/2000/svg">
<path d="M7.5 0C3.63 0 0.5 3.13 0.5 7C0.5 11.17 4.92 16.92 6.74 19.11C7.14 19.59 7.87 19.59 8.27 19.11C10.08 16.92 14.5 11.17 14.5 7C14.5 3.13 11.37 0 7.5 0ZM7.5 9.5C6.83696 9.5 6.20107 9.23661 5.73223 8.76777C5.26339 8.29893 5 7.66304 5 7C5 6.33696 5.26339 5.70107 5.73223 5.23223C6.20107 4.76339 6.83696 4.5 7.5 4.5C8.16304 4.5 8.79893 4.76339 9.26777 5.23223C9.73661 5.70107 10 6.33696 10 7C10 7.66304 9.73661 8.29893 9.26777 8.76777C8.79893 9.23661 8.16304 9.5 7.5 9.5Z" fill="#5884D7"/>
</svg>
