<svg width="18" height="18" viewBox="0 0 18 18" fill="none" xmlns="http://www.w3.org/2000/svg">
<path d="M14.0257 12.3471L17.5949 15.9154L16.4157 17.0946L12.8474 13.5254C11.5197 14.5898 9.86823 15.1687 8.16657 15.1663C4.02657 15.1663 0.666565 11.8063 0.666565 7.66626C0.666565 3.52626 4.02657 0.16626 8.16657 0.16626C12.3066 0.16626 15.6666 3.52626 15.6666 7.66626C15.669 9.36793 15.0901 11.0194 14.0257 12.3471ZM12.3541 11.7288C13.4117 10.6412 14.0023 9.18328 13.9999 7.66626C13.9999 4.44293 11.3891 1.83293 8.16657 1.83293C4.94323 1.83293 2.33323 4.44293 2.33323 7.66626C2.33323 10.8888 4.94323 13.4996 8.16657 13.4996C9.68359 13.502 11.1415 12.9114 12.2291 11.8538L12.3541 11.7288Z" fill="#F58216"/>
</svg>
