<svg width="17" height="14" viewBox="0 0 17 14" fill="none" xmlns="http://www.w3.org/2000/svg">
<path d="M4.18187 8.33399C4.36672 8.33399 4.54399 8.40422 4.6747 8.52925C4.80541 8.65427 4.87884 8.82384 4.87884 9.00065C4.87884 9.17746 4.80541 9.34703 4.6747 9.47206C4.54399 9.59708 4.36672 9.66732 4.18187 9.66732C3.72423 9.66732 3.27108 9.5811 2.84828 9.41358C2.42547 9.24607 2.04131 9.00054 1.71771 8.69101C1.06417 8.06589 0.697021 7.21804 0.697021 6.33399C0.697021 5.44993 1.06417 4.60208 1.71771 3.97696C2.37125 3.35184 3.25763 3.00065 4.18187 3.00065C4.87884 1.43398 6.48187 0.333984 8.36369 0.333984C10.7543 0.333984 12.7128 2.10732 12.894 4.35398L13.2425 4.33399C13.9819 4.33399 14.691 4.61494 15.2138 5.11503C15.7366 5.61513 16.0304 6.29341 16.0304 7.00065C16.0304 7.7079 15.7366 8.38617 15.2138 8.88627C14.691 9.38637 13.9819 9.66732 13.2425 9.66732H12.5455C12.3607 9.66732 12.1834 9.59708 12.0527 9.47206C11.922 9.34703 11.8485 9.17746 11.8485 9.00065C11.8485 8.82384 11.922 8.65427 12.0527 8.52925C12.1834 8.40422 12.3607 8.33399 12.5455 8.33399H13.2425C13.6122 8.33399 13.9667 8.19351 14.2281 7.94346C14.4896 7.69341 14.6364 7.35427 14.6364 7.00065C14.6364 6.64703 14.4896 6.30789 14.2281 6.05784C13.9667 5.8078 13.6122 5.66732 13.2425 5.66732H11.8485V5.00065C11.8485 4.1166 11.4814 3.26875 10.8278 2.64363C10.1743 2.01851 9.28793 1.66732 8.36369 1.66732C6.62126 1.66732 5.19248 2.88065 4.92066 4.46065C4.69066 4.38065 4.43975 4.33399 4.18187 4.33399C3.62733 4.33399 3.0955 4.5447 2.70337 4.91977C2.31125 5.29484 2.09096 5.80355 2.09096 6.33399C2.09096 6.86442 2.31125 7.37313 2.70337 7.7482C3.0955 8.12327 3.62733 8.33399 4.18187 8.33399ZM6.96975 11.0007C7.33944 11.0007 7.694 11.1411 7.95541 11.3912C8.21683 11.6412 8.36369 11.9804 8.36369 12.334C8.36369 12.6876 8.21683 13.0267 7.95541 13.2768C7.694 13.5268 7.33944 13.6673 6.96975 13.6673C6.60005 13.6673 6.2455 13.5268 5.98408 13.2768C5.72267 13.0267 5.57581 12.6876 5.57581 12.334C5.57581 11.9804 5.72267 11.6412 5.98408 11.3912C6.2455 11.1411 6.60005 11.0007 6.96975 11.0007ZM10.1061 9.66732C10.3834 9.66732 10.6493 9.77268 10.8454 9.96021C11.0414 10.1477 11.1516 10.4021 11.1516 10.6673C11.1516 10.9325 11.0414 11.1869 10.8454 11.3744C10.6493 11.562 10.3834 11.6673 10.1061 11.6673C9.82884 11.6673 9.56292 11.562 9.36686 11.3744C9.1708 11.1869 9.06066 10.9325 9.06066 10.6673C9.06066 10.4021 9.1708 10.1477 9.36686 9.96021C9.56292 9.77268 9.82884 9.66732 10.1061 9.66732ZM7.31823 7.00065C7.5955 7.00065 7.86142 7.10601 8.05748 7.29355C8.25354 7.48108 8.36369 7.73544 8.36369 8.00065C8.36369 8.26587 8.25354 8.52022 8.05748 8.70776C7.86142 8.8953 7.5955 9.00065 7.31823 9.00065C7.04096 9.00065 6.77504 8.8953 6.57898 8.70776C6.38292 8.52022 6.27278 8.26587 6.27278 8.00065C6.27278 7.73544 6.38292 7.48108 6.57898 7.29355C6.77504 7.10601 7.04096 7.00065 7.31823 7.00065Z" fill="white"/>
</svg>
