<svg width="16" height="16" viewBox="0 0 16 16" fill="none" xmlns="http://www.w3.org/2000/svg">
<path d="M8.7501 1.99961L8.0001 4.20011L7.2501 1.99961C7.20966 1.88043 7.19821 1.75333 7.21668 1.62884C7.23516 1.50435 7.28304 1.38606 7.35636 1.28376C7.42967 1.18147 7.5263 1.09812 7.63825 1.04062C7.75021 0.983118 7.87425 0.953125 8.0001 0.953125C8.12595 0.953125 8.25 0.983118 8.36195 1.04062C8.4739 1.09812 8.57053 1.18147 8.64385 1.28376C8.71716 1.38606 8.76504 1.50435 8.78352 1.62884C8.802 1.75333 8.79054 1.88043 8.7501 1.99961ZM2.0001 7.24961L4.2006 7.99961L2.0001 8.74961C1.88092 8.79005 1.75382 8.80151 1.62933 8.78303C1.50484 8.76455 1.38655 8.71667 1.28425 8.64336C1.18196 8.57004 1.09861 8.47341 1.04111 8.36146C0.983606 8.24951 0.953613 8.12547 0.953613 7.99961C0.953613 7.87376 0.983606 7.74972 1.04111 7.63777C1.09861 7.52581 1.18196 7.42918 1.28425 7.35587C1.38655 7.28255 1.50484 7.23467 1.62933 7.2162C1.75382 7.19772 1.88092 7.20917 2.0001 7.24961ZM7.2501 13.9996L8.0001 11.7991L8.7501 13.9996C8.79054 14.1188 8.802 14.2459 8.78352 14.3704C8.76504 14.4949 8.71716 14.6132 8.64385 14.7155C8.57053 14.8178 8.4739 14.9011 8.36195 14.9586C8.25 15.0161 8.12595 15.0461 8.0001 15.0461C7.87425 15.0461 7.75021 15.0161 7.63825 14.9586C7.5263 14.9011 7.42967 14.8178 7.35636 14.7155C7.28304 14.6132 7.23516 14.4949 7.21668 14.3704C7.19821 14.2459 7.20966 14.1188 7.2501 13.9996ZM14.0001 8.74811L11.7996 7.99811L14.0001 7.24811C14.1193 7.20767 14.2464 7.19622 14.3709 7.21469C14.4954 7.23317 14.6137 7.28105 14.716 7.35437C14.8182 7.42768 14.9016 7.52431 14.9591 7.63627C15.0166 7.74822 15.0466 7.87226 15.0466 7.99811C15.0466 8.12397 15.0166 8.24801 14.9591 8.35996C14.9016 8.47191 14.8182 8.56854 14.716 8.64186C14.6137 8.71517 14.4954 8.76305 14.3709 8.78153C14.2464 8.80001 14.1193 8.78855 14.0001 8.74811ZM4.2876 3.22661L5.31285 5.31236L3.2271 4.28711C3.11375 4.23165 3.01528 4.14993 2.93988 4.04875C2.86447 3.94757 2.81431 3.82985 2.79356 3.70538C2.77281 3.58091 2.78208 3.45328 2.82059 3.33311C2.8591 3.21295 2.92574 3.1037 3.01496 3.01448C3.10419 2.92525 3.21343 2.85861 3.3336 2.8201C3.45377 2.78159 3.5814 2.77233 3.70587 2.79307C3.83034 2.81382 3.94806 2.86398 4.04924 2.93939C4.15042 3.0148 4.23214 3.11327 4.2876 3.22661ZM3.2271 11.7114L5.31285 10.6861L4.2876 12.7719C4.23214 12.8852 4.15042 12.9837 4.04924 13.0591C3.94806 13.1345 3.83034 13.1847 3.70587 13.2054C3.5814 13.2261 3.45377 13.2169 3.3336 13.1784C3.21343 13.1399 3.10419 13.0732 3.01496 12.984C2.92574 12.8948 2.8591 12.7855 2.82059 12.6654C2.78208 12.5452 2.77281 12.4176 2.79356 12.2931C2.81431 12.1686 2.86447 12.0509 2.93988 11.9497C3.01528 11.8485 3.11375 11.7668 3.2271 11.7114ZM11.7119 12.7719L10.6866 10.6861L12.7724 11.7114C12.8857 11.7668 12.9842 11.8485 13.0596 11.9497C13.135 12.0509 13.1851 12.1686 13.2059 12.2931C13.2266 12.4176 13.2174 12.5452 13.1789 12.6654C13.1404 12.7855 13.0737 12.8948 12.9845 12.984C12.8953 13.0732 12.786 13.1399 12.6658 13.1784C12.5457 13.2169 12.4181 13.2261 12.2936 13.2054C12.1691 13.1847 12.0514 13.1345 11.9502 13.0591C11.849 12.9837 11.7673 12.8852 11.7119 12.7719ZM12.7716 4.28561L10.6851 5.31161L11.7111 3.22511C11.7666 3.11177 11.8483 3.0133 11.9495 2.93789C12.0506 2.86248 12.1684 2.81232 12.2928 2.79157C12.4173 2.77083 12.5449 2.78009 12.6651 2.8186C12.7853 2.85711 12.8945 2.92375 12.9837 3.01298C13.073 3.1022 13.1396 3.21145 13.1781 3.33161C13.2166 3.45178 13.2259 3.57941 13.2051 3.70388C13.1844 3.82835 13.1342 3.94607 13.0588 4.04725C12.9834 4.14843 12.8849 4.23015 12.7716 4.28561ZM8.0001 11.3746C6.13935 11.3746 4.6251 9.86036 4.6251 7.99961C4.6251 6.13886 6.13935 4.62461 8.0001 4.62461C9.86085 4.62461 11.3751 6.13886 11.3751 7.99961C11.3751 9.86036 9.86085 11.3746 8.0001 11.3746ZM8.0001 6.12461C6.96585 6.12461 6.1251 6.96536 6.1251 7.99961C6.1251 9.03386 6.96585 9.87461 8.0001 9.87461C9.03435 9.87461 9.8751 9.03386 9.8751 7.99961C9.8751 6.96536 9.03435 6.12461 8.0001 6.12461Z" fill="white"/>
</svg>
