<svg width="12" height="12" viewBox="0 0 12 12" fill="none" xmlns="http://www.w3.org/2000/svg">
<path d="M1.33333 4.83268C1.17862 4.83268 1.03025 4.77122 0.920854 4.66183C0.811458 4.55243 0.75 4.40406 0.75 4.24935C0.75 4.09464 0.811458 3.94627 0.920854 3.83687C1.03025 3.72747 1.17862 3.66602 1.33333 3.66602H6C6.30942 3.66602 6.60617 3.5431 6.82496 3.32431C7.04375 3.10551 7.16667 2.80877 7.16667 2.49935C7.16667 2.18993 7.04375 1.89318 6.82496 1.67439C6.60617 1.4556 6.30942 1.33268 6 1.33268C5.67917 1.33268 5.3875 1.46102 5.1775 1.67685C5.12441 1.7335 5.06027 1.77866 4.98903 1.80954C4.91779 1.84041 4.84097 1.85634 4.76333 1.85634C4.68569 1.85634 4.60888 1.84041 4.53764 1.80954C4.4664 1.77866 4.40225 1.7335 4.34917 1.67685C4.12167 1.44935 4.12167 1.07602 4.34917 0.848516C4.775 0.428516 5.35833 0.166016 6 0.166016C6.61884 0.166016 7.21233 0.411848 7.64992 0.849433C8.0875 1.28702 8.33333 1.88051 8.33333 2.49935C8.33333 3.11819 8.0875 3.71168 7.64992 4.14927C7.21233 4.58685 6.61884 4.83268 6 4.83268H1.33333ZM10.0833 5.99935C10.238 5.99935 10.3864 5.93789 10.4958 5.8285C10.6052 5.7191 10.6667 5.57073 10.6667 5.41602C10.6667 5.26131 10.6052 5.11293 10.4958 5.00354C10.3864 4.89414 10.238 4.83268 10.0833 4.83268C9.92 4.83268 9.77417 4.89685 9.66917 5.00185C9.6152 5.05593 9.5511 5.09883 9.48053 5.1281C9.40996 5.15737 9.33432 5.17244 9.25792 5.17244C9.18152 5.17244 9.10587 5.15737 9.0353 5.1281C8.96474 5.09883 8.90063 5.05593 8.84667 5.00185C8.625 4.77435 8.625 4.40685 8.84667 4.17935C9.16167 3.86435 9.59917 3.66602 10.0833 3.66602C10.5475 3.66602 10.9926 3.85039 11.3208 4.17858C11.649 4.50677 11.8333 4.95189 11.8333 5.41602C11.8333 5.88015 11.649 6.32526 11.3208 6.65345C10.9926 6.98164 10.5475 7.16602 10.0833 7.16602H1.91667C1.76196 7.16602 1.61358 7.10456 1.50419 6.99516C1.39479 6.88577 1.33333 6.73739 1.33333 6.58268C1.33333 6.42797 1.39479 6.2796 1.50419 6.1702C1.61358 6.06081 1.76196 5.99935 1.91667 5.99935H10.0833ZM9.5 9.49935H1.33333C1.17862 9.49935 1.03025 9.43789 0.920854 9.3285C0.811458 9.2191 0.75 9.07073 0.75 8.91602C0.75 8.76131 0.811458 8.61293 0.920854 8.50354C1.03025 8.39414 1.17862 8.33268 1.33333 8.33268H9.5C9.96413 8.33268 10.4092 8.51706 10.7374 8.84525C11.0656 9.17343 11.25 9.61855 11.25 10.0827C11.25 10.5468 11.0656 10.9919 10.7374 11.3201C10.4092 11.6483 9.96413 11.8327 9.5 11.8327C9.01583 11.8327 8.57833 11.6343 8.26333 11.3194C8.04167 11.0919 8.04167 10.7243 8.26333 10.4968C8.3173 10.4428 8.3814 10.3999 8.45197 10.3706C8.52254 10.3413 8.59819 10.3263 8.67458 10.3263C8.75098 10.3263 8.82663 10.3413 8.8972 10.3706C8.96777 10.3999 9.03187 10.4428 9.08583 10.4968C9.19083 10.6018 9.33667 10.666 9.5 10.666C9.65471 10.666 9.80308 10.6046 9.91248 10.4952C10.0219 10.3858 10.0833 10.2374 10.0833 10.0827C10.0833 9.92797 10.0219 9.7796 9.91248 9.6702C9.80308 9.56081 9.65471 9.49935 9.5 9.49935Z" fill="white"/>
</svg>
